<svg xmlns="http://www.w3.org/2000/svg" viewBox="0 0 1200 675" role="img" aria-labelledby="title desc">
  <title id="title">NN/g custodial era illustration</title>
  <desc id="desc">Branded illustration for The Custodial Era of UX article.</desc>
  <defs>
    <linearGradient id="bg" x1="0" x2="1" y1="0" y2="1">
      <stop offset="0%" stop-color="#fff7ed"/>
      <stop offset="100%" stop-color="#f8fafc"/>
    </linearGradient>
  </defs>
  <rect width="1200" height="675" fill="url(#bg)"/>
  <rect x="96" y="90" width="1008" height="495" rx="40" fill="#ffffff" stroke="#e7dccd" stroke-width="4"/>
  <circle cx="270" cy="340" r="114" fill="#fed7aa"/>
  <path d="M214 390c36-48 104-48 140 0" fill="none" stroke="#9a3412" stroke-width="18" stroke-linecap="round"/>
  <rect x="450" y="170" width="530" height="82" rx="28" fill="#ffedd5"/>
  <rect x="450" y="292" width="452" height="20" rx="10" fill="#cbd5e1"/>
  <rect x="450" y="334" width="398" height="20" rx="10" fill="#cbd5e1"/>
  <rect x="450" y="376" width="428" height="20" rx="10" fill="#cbd5e1"/>
  <path d="M906 420c0 74-60 134-134 134s-134-60-134-134 60-134 134-134 134 60 134 134Z" fill="#1d4ed8" opacity=".12"/>
  <path d="M772 320v108" fill="none" stroke="#1d4ed8" stroke-width="18" stroke-linecap="round"/>
  <path d="m726 382 46 46 74-96" fill="none" stroke="#1d4ed8" stroke-width="18" stroke-linecap="round" stroke-linejoin="round"/>
  <text x="150" y="562" fill="#9a3412" font-family="-apple-system,BlinkMacSystemFont,sans-serif" font-size="30" font-weight="800">NN/g</text>
  <text x="150" y="604" fill="#0f172a" font-family="-apple-system,BlinkMacSystemFont,sans-serif" font-size="46" font-weight="800">The Custodial Era of UX</text>
  <text x="150" y="646" fill="#334155" font-family="-apple-system,BlinkMacSystemFont,sans-serif" font-size="32" font-weight="600">Cleaning Up After AI</text>
</svg>
