<svg xmlns="http://www.w3.org/2000/svg" viewBox="0 0 1200 675" role="img" aria-labelledby="title desc">
  <title id="title">Google Drive in ChatGPT Library</title>
  <desc id="desc">Abstract interface showing a file library and connected Google Drive documents.</desc>
  <defs>
    <linearGradient id="bg" x1="0" y1="0" x2="1" y2="1">
      <stop offset="0%" stop-color="#eff6ff"/>
      <stop offset="100%" stop-color="#dcfce7"/>
    </linearGradient>
  </defs>
  <rect width="1200" height="675" fill="url(#bg)"/>
  <rect x="92" y="82" width="1016" height="511" rx="34" fill="#ffffff" stroke="#86efac" stroke-width="4"/>
  <rect x="136" y="128" width="264" height="420" rx="26" fill="#0f172a"/>
  <text x="172" y="186" fill="#ffffff" font-family="Arial, sans-serif" font-size="34" font-weight="700">Library</text>
  <rect x="172" y="216" width="154" height="16" rx="8" fill="#93c5fd"/>
  <rect x="172" y="266" width="184" height="68" rx="18" fill="#1e293b"/>
  <rect x="172" y="350" width="184" height="68" rx="18" fill="#1e293b"/>
  <rect x="172" y="434" width="184" height="68" rx="18" fill="#1e293b"/>
  <path d="M520 210l74-130h80l74 130-74 130h-80z" fill="#22c55e"/>
  <path d="M520 210l74-130 74 130h-148z" fill="#60a5fa"/>
  <path d="M668 210l74-130 74 130-74 130z" fill="#fbbf24"/>
  <rect x="480" y="304" width="520" height="188" rx="28" fill="#f8fafc" stroke="#bfdbfe" stroke-width="4"/>
  <text x="524" y="360" fill="#111827" font-family="Arial, sans-serif" font-size="34" font-weight="700">Drive files stay live in chat</text>
  <rect x="524" y="392" width="236" height="18" rx="9" fill="#bbf7d0"/>
  <rect x="524" y="424" width="276" height="18" rx="9" fill="#bfdbfe"/>
  <rect x="524" y="456" width="192" height="18" rx="9" fill="#fde68a"/>
  <text x="480" y="560" fill="#111827" font-family="Arial, sans-serif" font-size="48" font-weight="700">Connected docs become first-class context</text>
</svg>
